<?xml version="1.0" ?><svg height="24px" version="1.1" viewBox="0 0 24 24" width="24px" xmlns="http://www.w3.org/2000/svg" xmlns:sketch="http://www.bohemiancoding.com/sketch/ns" xmlns:xlink="http://www.w3.org/1999/xlink"><title/><desc/><defs/><g fill="none" fill-rule="evenodd" id="miu" stroke="none" stroke-width="1"><g id="Artboard-1" transform="translate(-359.000000, -335.000000)"><g id="slice" transform="translate(215.000000, 119.000000)"/><path d="M379,350 L381,350 L381,344 L361,344 L361,350 L363,350 L363,351 L361.1,351 C361.1,351 360,351 360,349.888889 L360,344.111111 C360,344.111111 360,343 361.1,343 L380.9,343 C382,343 382,344.111111 382,344.111111 L382,349.888889 C382,351 380.9,351 380.9,351 L379,351 L379,350 Z M363.510356,346 C363.510356,346 363.000001,346 363,346.5 C363,347 363.510356,347 363.510356,347 L378.489644,347 C378.489644,347 379,347 379,346.5 C379,346 378.489644,346 378.489644,346 L363.510356,346 L363.510356,346 Z M364,350 L364,358 L378,358 L378,350 L364,350 L364,350 Z M366,355 L376,355 L376,354 L366,354 L366,355 Z M366,352 L366,353 L376,353 L376,352 L366,352 L366,352 Z M365,351 L365,357 L377,357 L377,351 L365,351 L365,351 Z M377,337 L365,337 L365,342 L364,342 L364,336 L378,336 L378,342 L377,342 L377,337 Z" fill="#000000" id="common-printer-print-outline-stroke"/></g></g></svg>